<?xml version="1.0" encoding="UTF-8" standalone="no"?>
<!-- Created with Inkscape (http://www.inkscape.org/) -->

<svg
   width="1024"
   height="1024"
   viewBox="0 0 270.93333 270.93333"
   version="1.1"
   id="svg1"
   inkscape:version="1.4.2 (ebf0e940d0, 2025-05-08)"
   sodipodi:docname="app-icon.svg"
   xmlns:inkscape="http://www.inkscape.org/namespaces/inkscape"
   xmlns:sodipodi="http://sodipodi.sourceforge.net/DTD/sodipodi-0.dtd"
   xmlns:xlink="http://www.w3.org/1999/xlink"
   xmlns="http://www.w3.org/2000/svg"
   xmlns:svg="http://www.w3.org/2000/svg">
  <sodipodi:namedview
     id="namedview1"
     pagecolor="#ffffff"
     bordercolor="#000000"
     borderopacity="0.25"
     inkscape:showpageshadow="2"
     inkscape:pageopacity="0.0"
     inkscape:pagecheckerboard="0"
     inkscape:deskcolor="#d1d1d1"
     inkscape:document-units="mm"
     inkscape:zoom="0.51165745"
     inkscape:cx="580.46648"
     inkscape:cy="643.98554"
     inkscape:window-width="1886"
     inkscape:window-height="1008"
     inkscape:window-x="0"
     inkscape:window-y="0"
     inkscape:window-maximized="1"
     inkscape:current-layer="g1" />
  <defs
     id="defs1">
    <linearGradient
       id="linearGradient12"
       inkscape:collect="always">
      <stop
         style="stop-color:#453718;stop-opacity:1;"
         offset="0"
         id="stop12" />
      <stop
         style="stop-color:#77684b;stop-opacity:1;"
         offset="1"
         id="stop13" />
    </linearGradient>
    <linearGradient
       id="linearGradient10"
       inkscape:collect="always">
      <stop
         style="stop-color:#d6c58e;stop-opacity:1;"
         offset="0"
         id="stop10" />
      <stop
         style="stop-color:#706f98;stop-opacity:1;"
         offset="1"
         id="stop11" />
    </linearGradient>
    <linearGradient
       id="linearGradient8"
       inkscape:collect="always">
      <stop
         style="stop-color:#6d552c;stop-opacity:1;"
         offset="0"
         id="stop8" />
      <stop
         style="stop-color:#b6914e;stop-opacity:1;"
         offset="1"
         id="stop9" />
    </linearGradient>
    <linearGradient
       id="linearGradient6"
       inkscape:collect="always">
      <stop
         style="stop-color:#674d24;stop-opacity:1;"
         offset="0"
         id="stop6" />
      <stop
         style="stop-color:#a28032;stop-opacity:1;"
         offset="1"
         id="stop7" />
    </linearGradient>
    <linearGradient
       id="linearGradient4"
       inkscape:collect="always">
      <stop
         style="stop-color:#c1aa72;stop-opacity:1;"
         offset="0"
         id="stop4" />
      <stop
         style="stop-color:#9f8f49;stop-opacity:1;"
         offset="1"
         id="stop5" />
    </linearGradient>
    <linearGradient
       inkscape:collect="always"
       xlink:href="#linearGradient4"
       id="linearGradient5"
       x1="125.10867"
       y1="252.61487"
       x2="130.23524"
       y2="25.236919"
       gradientUnits="userSpaceOnUse" />
    <linearGradient
       inkscape:collect="always"
       xlink:href="#linearGradient6"
       id="linearGradient7"
       x1="104.98772"
       y1="23.712227"
       x2="101.57"
       y2="88.179825"
       gradientUnits="userSpaceOnUse" />
    <linearGradient
       inkscape:collect="always"
       xlink:href="#linearGradient8"
       id="linearGradient9"
       x1="163.36708"
       y1="252.74052"
       x2="165.76012"
       y2="209.33545"
       gradientUnits="userSpaceOnUse" />
    <linearGradient
       inkscape:collect="always"
       xlink:href="#linearGradient10"
       id="linearGradient11"
       x1="118.43422"
       y1="103.56102"
       x2="249.06137"
       y2="71.447029"
       gradientUnits="userSpaceOnUse" />
    <linearGradient
       inkscape:collect="always"
       xlink:href="#linearGradient12"
       id="linearGradient13"
       x1="73.180511"
       y1="195.90025"
       x2="242.58461"
       y2="42.886551"
       gradientUnits="userSpaceOnUse" />
  </defs>
  <g
     inkscape:label="Layer 1"
     inkscape:groupmode="layer"
     id="layer1">
    <g
       id="g1"
       transform="matrix(0.9969603,-0.00644821,-0.07791121,-1.002545,11.149322,277.06865)">
      <path
         style="fill:url(#linearGradient7);stroke-width:0.264583"
         d="m 47.164556,22.21519 c 0,0 49.215191,4.78481 80.316464,4.78481 31.10126,0 70.40505,25.291139 70.40505,25.291139 0,0 -6.49367,16.405063 -1.36709,26.999999 5.12658,10.594937 -17.77215,-17.772151 -29.73417,9.911396 -10.5645,24.449276 -34.53853,-4.447548 -56.90574,-5.164285 C 84.367588,83.220758 47.039435,88.310122 16.666738,97.707378 7.7626568,58.922832 11.182394,21.187126 47.164556,22.21519 Z"
         id="path2"
         sodipodi:nodetypes="cscssscc" />
      <path
         style="fill:url(#linearGradient5);stroke-width:0.264583"
         d="m 47.164556,22.21519 c 0,0 49.215191,4.78481 80.316464,4.78481 31.10126,0 76.55695,-5.126583 76.55695,-5.126583 45.47466,11.187313 21.55076,64.599697 9.9114,93.645573 -9.98217,24.69276 -18.47302,44.40025 -22.2152,65.96202 -5.74436,33.09801 -0.87078,47.98299 4.44304,57.7595 4.41179,8.11693 5.60277,12.3089 5.60277,12.3089 0,0 -43.1977,-1.03042 -65.07112,-0.68865 -22.00117,0.34376 -75.142689,0.89576 -75.142689,0.89576 -13.495993,-1.88225 -20.110348,-22.54446 -18.797469,-34.51898 1.937403,-17.67068 9.182824,-39.4732 13.670887,-51.60759 C 65.667438,140.68058 73.147363,109.28499 74.279035,85.122798 75.809879,52.437931 59.468353,22.556961 47.164556,22.21519 Z"
         id="path1"
         sodipodi:nodetypes="cscssscscsssc" />
      <path
         style="fill:url(#linearGradient9);stroke-width:0.264583"
         d="m 227.19528,194.74014 c 12.89034,34.62356 1.28788,60.26029 -18.30454,59.99573 0,0 -50.30846,-4.21688 -72.18188,-3.87511 -22.00117,0.34376 -75.675151,0.87893 -75.675151,0.87893 27.021537,-0.71668 27.477784,-20.39413 23.053856,-37.33052 31.101265,6.49367 56.479085,8.7917 79.044655,6.82443 22.56558,-1.96728 50.45935,-11.56973 64.06306,-26.49346 z"
         id="path3"
         sodipodi:nodetypes="ccscczc" />
    </g>
    <g
       id="g2"
       transform="matrix(0.78224042,-0.04609497,0.03580343,1.0070917,27.835911,8.1171271)">
      <path
         style="fill:url(#linearGradient11);stroke-width:0.265;stroke-dasharray:none"
         d="m 158.58228,83.050633 c 41.01265,-32.329383 71.40368,-41.862247 93.98734,-48.189874 -34.57149,16.84358 -84.96697,72.350641 -95.01266,86.810121 -10.49562,15.10709 -30.21989,17.97362 -46.13924,16.06329 3.57661,-9.60318 25.34562,-37.48414 47.16456,-54.683537 z"
         id="path9"
         sodipodi:nodetypes="scscs" />
      <path
         style="fill:url(#linearGradient13);fill-opacity:1;stroke-width:0.265;stroke-dasharray:none"
         d="m 73.720244,203.65618 c 3.402277,-15.70135 9.432183,-34.05813 20.239258,-50.99314 18.371808,-28.78917 32.367358,-43.95887 64.622778,-72.004812 39.31446,-34.183741 93.98734,-45.797469 93.98734,-45.797469 -82.96433,26.092449 -127.78824,85.875711 -141.1519,102.873411 -11.2239,14.27607 -21.713135,30.58781 -28.772973,49.45584 0,0 6.403714,-0.83203 4.101266,3.41772 -3.361408,6.20433 -3.715444,2.34731 -13.025769,13.04845 z"
         id="path4"
         sodipodi:nodetypes="csscscsc" />
    </g>
  </g>
</svg>
